<mxfile host="app.diagrams.net" modified="2022-08-22T03:55:47.094Z" agent="5.0 (Windows NT 10.0; Win64; x64) AppleWebKit/537.36 (KHTML, like Gecko) Chrome/104.0.0.0 Safari/537.36" etag="Qrdrk4cSPAMmYGMsyCjr" version="20.2.5" type="github">
  <diagram id="C5RBs43oDa-KdzZeNtuy" name="Page-1">
    <mxGraphModel dx="1887" dy="980" grid="1" gridSize="10" guides="1" tooltips="1" connect="1" arrows="1" fold="1" page="1" pageScale="1" pageWidth="827" pageHeight="1169" math="0" shadow="0">
      <root>
        <mxCell id="WIyWlLk6GJQsqaUBKTNV-0" />
        <mxCell id="WIyWlLk6GJQsqaUBKTNV-1" parent="WIyWlLk6GJQsqaUBKTNV-0" />
        <mxCell id="WIyWlLk6GJQsqaUBKTNV-2" value="" style="rounded=0;html=1;jettySize=auto;orthogonalLoop=1;fontSize=11;endArrow=block;endFill=0;endSize=8;strokeWidth=1;shadow=0;labelBackgroundColor=none;edgeStyle=orthogonalEdgeStyle;" parent="WIyWlLk6GJQsqaUBKTNV-1" source="WIyWlLk6GJQsqaUBKTNV-3" edge="1">
          <mxGeometry relative="1" as="geometry">
            <mxPoint x="220" y="170" as="targetPoint" />
          </mxGeometry>
        </mxCell>
        <mxCell id="WIyWlLk6GJQsqaUBKTNV-3" value="Wake up." style="rounded=1;whiteSpace=wrap;html=1;fontSize=12;glass=0;strokeWidth=1;shadow=0;" parent="WIyWlLk6GJQsqaUBKTNV-1" vertex="1">
          <mxGeometry x="160" y="80" width="120" height="40" as="geometry" />
        </mxCell>
        <mxCell id="-XHTt6q0BibQDivQ267n-4" value="" style="edgeStyle=orthogonalEdgeStyle;rounded=0;orthogonalLoop=1;jettySize=auto;html=1;" edge="1" parent="WIyWlLk6GJQsqaUBKTNV-1">
          <mxGeometry relative="1" as="geometry">
            <mxPoint x="219.5" y="210" as="sourcePoint" />
            <mxPoint x="219.5" y="260" as="targetPoint" />
          </mxGeometry>
        </mxCell>
        <mxCell id="-XHTt6q0BibQDivQ267n-8" value="Take a shower" style="rounded=1;whiteSpace=wrap;html=1;" vertex="1" parent="WIyWlLk6GJQsqaUBKTNV-1">
          <mxGeometry x="160" y="170" width="120" height="40" as="geometry" />
        </mxCell>
        <mxCell id="-XHTt6q0BibQDivQ267n-21" style="edgeStyle=orthogonalEdgeStyle;rounded=0;orthogonalLoop=1;jettySize=auto;html=1;exitX=1;exitY=0.5;exitDx=0;exitDy=0;" edge="1" parent="WIyWlLk6GJQsqaUBKTNV-1" source="-XHTt6q0BibQDivQ267n-20" target="-XHTt6q0BibQDivQ267n-22">
          <mxGeometry relative="1" as="geometry">
            <mxPoint x="310" y="370" as="targetPoint" />
          </mxGeometry>
        </mxCell>
        <mxCell id="-XHTt6q0BibQDivQ267n-20" value="Are you hungry" style="rhombus;whiteSpace=wrap;html=1;" vertex="1" parent="WIyWlLk6GJQsqaUBKTNV-1">
          <mxGeometry x="180" y="260" width="80" height="80" as="geometry" />
        </mxCell>
        <mxCell id="-XHTt6q0BibQDivQ267n-23" style="edgeStyle=orthogonalEdgeStyle;rounded=0;orthogonalLoop=1;jettySize=auto;html=1;startArrow=none;" edge="1" parent="WIyWlLk6GJQsqaUBKTNV-1" source="-XHTt6q0BibQDivQ267n-73" target="-XHTt6q0BibQDivQ267n-24">
          <mxGeometry relative="1" as="geometry">
            <mxPoint x="310" y="500" as="targetPoint" />
          </mxGeometry>
        </mxCell>
        <mxCell id="-XHTt6q0BibQDivQ267n-22" value="Eat breakfast" style="rounded=1;whiteSpace=wrap;html=1;" vertex="1" parent="WIyWlLk6GJQsqaUBKTNV-1">
          <mxGeometry x="250" y="320" width="120" height="40" as="geometry" />
        </mxCell>
        <mxCell id="-XHTt6q0BibQDivQ267n-26" value="" style="edgeStyle=orthogonalEdgeStyle;rounded=0;orthogonalLoop=1;jettySize=auto;html=1;" edge="1" parent="WIyWlLk6GJQsqaUBKTNV-1" source="-XHTt6q0BibQDivQ267n-24" target="-XHTt6q0BibQDivQ267n-27">
          <mxGeometry relative="1" as="geometry">
            <mxPoint x="310" y="570" as="targetPoint" />
          </mxGeometry>
        </mxCell>
        <mxCell id="-XHTt6q0BibQDivQ267n-24" value="Get dressed" style="rounded=1;whiteSpace=wrap;html=1;" vertex="1" parent="WIyWlLk6GJQsqaUBKTNV-1">
          <mxGeometry x="250" y="470" width="120" height="60" as="geometry" />
        </mxCell>
        <mxCell id="-XHTt6q0BibQDivQ267n-30" value="" style="edgeStyle=orthogonalEdgeStyle;rounded=0;orthogonalLoop=1;jettySize=auto;html=1;" edge="1" parent="WIyWlLk6GJQsqaUBKTNV-1" source="-XHTt6q0BibQDivQ267n-27" target="-XHTt6q0BibQDivQ267n-29">
          <mxGeometry relative="1" as="geometry" />
        </mxCell>
        <mxCell id="-XHTt6q0BibQDivQ267n-27" value="Go to school" style="rounded=1;whiteSpace=wrap;html=1;" vertex="1" parent="WIyWlLk6GJQsqaUBKTNV-1">
          <mxGeometry x="250" y="560" width="120" height="60" as="geometry" />
        </mxCell>
        <mxCell id="-XHTt6q0BibQDivQ267n-28" value="" style="endArrow=classic;html=1;rounded=0;exitX=0;exitY=0.5;exitDx=0;exitDy=0;entryX=0;entryY=0.5;entryDx=0;entryDy=0;" edge="1" parent="WIyWlLk6GJQsqaUBKTNV-1" source="-XHTt6q0BibQDivQ267n-20" target="-XHTt6q0BibQDivQ267n-73">
          <mxGeometry width="50" height="50" relative="1" as="geometry">
            <mxPoint x="40" y="450" as="sourcePoint" />
            <mxPoint x="90" y="400" as="targetPoint" />
            <Array as="points">
              <mxPoint x="180" y="420" />
            </Array>
          </mxGeometry>
        </mxCell>
        <mxCell id="-XHTt6q0BibQDivQ267n-34" value="" style="edgeStyle=orthogonalEdgeStyle;rounded=0;orthogonalLoop=1;jettySize=auto;html=1;" edge="1" parent="WIyWlLk6GJQsqaUBKTNV-1" source="-XHTt6q0BibQDivQ267n-29" target="-XHTt6q0BibQDivQ267n-33">
          <mxGeometry relative="1" as="geometry" />
        </mxCell>
        <mxCell id="-XHTt6q0BibQDivQ267n-29" value="Study" style="whiteSpace=wrap;html=1;rounded=1;" vertex="1" parent="WIyWlLk6GJQsqaUBKTNV-1">
          <mxGeometry x="250" y="660" width="120" height="60" as="geometry" />
        </mxCell>
        <mxCell id="-XHTt6q0BibQDivQ267n-38" value="" style="edgeStyle=orthogonalEdgeStyle;rounded=0;orthogonalLoop=1;jettySize=auto;html=1;" edge="1" parent="WIyWlLk6GJQsqaUBKTNV-1" source="-XHTt6q0BibQDivQ267n-33" target="-XHTt6q0BibQDivQ267n-37">
          <mxGeometry relative="1" as="geometry" />
        </mxCell>
        <mxCell id="-XHTt6q0BibQDivQ267n-33" value="It&#39;s lunch time,Are you hungry" style="rhombus;whiteSpace=wrap;html=1;rounded=1;" vertex="1" parent="WIyWlLk6GJQsqaUBKTNV-1">
          <mxGeometry x="240" y="750" width="140" height="140" as="geometry" />
        </mxCell>
        <mxCell id="-XHTt6q0BibQDivQ267n-40" value="" style="edgeStyle=orthogonalEdgeStyle;rounded=0;orthogonalLoop=1;jettySize=auto;html=1;" edge="1" parent="WIyWlLk6GJQsqaUBKTNV-1" source="-XHTt6q0BibQDivQ267n-37" target="-XHTt6q0BibQDivQ267n-39">
          <mxGeometry relative="1" as="geometry" />
        </mxCell>
        <mxCell id="-XHTt6q0BibQDivQ267n-37" value="Get lunch" style="whiteSpace=wrap;html=1;rounded=1;" vertex="1" parent="WIyWlLk6GJQsqaUBKTNV-1">
          <mxGeometry x="450" y="790" width="120" height="60" as="geometry" />
        </mxCell>
        <mxCell id="-XHTt6q0BibQDivQ267n-43" value="" style="edgeStyle=orthogonalEdgeStyle;rounded=0;orthogonalLoop=1;jettySize=auto;html=1;" edge="1" parent="WIyWlLk6GJQsqaUBKTNV-1" source="-XHTt6q0BibQDivQ267n-39" target="-XHTt6q0BibQDivQ267n-42">
          <mxGeometry relative="1" as="geometry" />
        </mxCell>
        <mxCell id="-XHTt6q0BibQDivQ267n-39" value="Hang out with your friends" style="whiteSpace=wrap;html=1;rounded=1;" vertex="1" parent="WIyWlLk6GJQsqaUBKTNV-1">
          <mxGeometry x="450" y="950" width="120" height="60" as="geometry" />
        </mxCell>
        <mxCell id="-XHTt6q0BibQDivQ267n-41" value="" style="endArrow=classic;html=1;rounded=0;entryX=0;entryY=0.5;entryDx=0;entryDy=0;exitX=0.5;exitY=1;exitDx=0;exitDy=0;" edge="1" parent="WIyWlLk6GJQsqaUBKTNV-1" source="-XHTt6q0BibQDivQ267n-33" target="-XHTt6q0BibQDivQ267n-39">
          <mxGeometry width="50" height="50" relative="1" as="geometry">
            <mxPoint x="310" y="900" as="sourcePoint" />
            <mxPoint x="90" y="780" as="targetPoint" />
            <Array as="points">
              <mxPoint x="310" y="980" />
            </Array>
          </mxGeometry>
        </mxCell>
        <mxCell id="-XHTt6q0BibQDivQ267n-47" value="" style="edgeStyle=orthogonalEdgeStyle;rounded=0;orthogonalLoop=1;jettySize=auto;html=1;" edge="1" parent="WIyWlLk6GJQsqaUBKTNV-1" source="-XHTt6q0BibQDivQ267n-42" target="-XHTt6q0BibQDivQ267n-46">
          <mxGeometry relative="1" as="geometry" />
        </mxCell>
        <mxCell id="-XHTt6q0BibQDivQ267n-42" value="Get back to your house" style="whiteSpace=wrap;html=1;rounded=1;" vertex="1" parent="WIyWlLk6GJQsqaUBKTNV-1">
          <mxGeometry x="450" y="1055" width="120" height="60" as="geometry" />
        </mxCell>
        <mxCell id="-XHTt6q0BibQDivQ267n-49" value="" style="edgeStyle=orthogonalEdgeStyle;rounded=0;orthogonalLoop=1;jettySize=auto;html=1;" edge="1" parent="WIyWlLk6GJQsqaUBKTNV-1" source="-XHTt6q0BibQDivQ267n-46" target="-XHTt6q0BibQDivQ267n-48">
          <mxGeometry relative="1" as="geometry" />
        </mxCell>
        <mxCell id="-XHTt6q0BibQDivQ267n-46" value="Do you have homework" style="rhombus;whiteSpace=wrap;html=1;rounded=1;" vertex="1" parent="WIyWlLk6GJQsqaUBKTNV-1">
          <mxGeometry x="460" y="1185" width="100" height="95" as="geometry" />
        </mxCell>
        <mxCell id="-XHTt6q0BibQDivQ267n-51" value="" style="edgeStyle=orthogonalEdgeStyle;rounded=0;orthogonalLoop=1;jettySize=auto;html=1;" edge="1" parent="WIyWlLk6GJQsqaUBKTNV-1" source="-XHTt6q0BibQDivQ267n-48" target="-XHTt6q0BibQDivQ267n-50">
          <mxGeometry relative="1" as="geometry" />
        </mxCell>
        <mxCell id="-XHTt6q0BibQDivQ267n-48" value="Do your homework" style="whiteSpace=wrap;html=1;rounded=1;" vertex="1" parent="WIyWlLk6GJQsqaUBKTNV-1">
          <mxGeometry x="630" y="1202.5" width="120" height="60" as="geometry" />
        </mxCell>
        <mxCell id="-XHTt6q0BibQDivQ267n-61" value="" style="edgeStyle=orthogonalEdgeStyle;rounded=0;orthogonalLoop=1;jettySize=auto;html=1;fontSize=11;" edge="1" parent="WIyWlLk6GJQsqaUBKTNV-1" source="-XHTt6q0BibQDivQ267n-50" target="-XHTt6q0BibQDivQ267n-60">
          <mxGeometry relative="1" as="geometry" />
        </mxCell>
        <mxCell id="-XHTt6q0BibQDivQ267n-50" value="Study for tomorrows class" style="whiteSpace=wrap;html=1;rounded=1;" vertex="1" parent="WIyWlLk6GJQsqaUBKTNV-1">
          <mxGeometry x="630" y="1342.5" width="120" height="60" as="geometry" />
        </mxCell>
        <mxCell id="-XHTt6q0BibQDivQ267n-52" value="" style="endArrow=classic;html=1;rounded=0;exitX=0.5;exitY=1;exitDx=0;exitDy=0;entryX=0;entryY=0.5;entryDx=0;entryDy=0;" edge="1" parent="WIyWlLk6GJQsqaUBKTNV-1" source="-XHTt6q0BibQDivQ267n-46" target="-XHTt6q0BibQDivQ267n-50">
          <mxGeometry width="50" height="50" relative="1" as="geometry">
            <mxPoint x="370" y="1210" as="sourcePoint" />
            <mxPoint x="420" y="1160" as="targetPoint" />
            <Array as="points">
              <mxPoint x="510" y="1373" />
            </Array>
          </mxGeometry>
        </mxCell>
        <mxCell id="-XHTt6q0BibQDivQ267n-56" value="True" style="text;strokeColor=none;fillColor=none;html=1;fontSize=11;fontStyle=1;verticalAlign=middle;align=center;" vertex="1" parent="WIyWlLk6GJQsqaUBKTNV-1">
          <mxGeometry x="260" y="280" width="40" height="20" as="geometry" />
        </mxCell>
        <mxCell id="-XHTt6q0BibQDivQ267n-57" value="True" style="text;strokeColor=none;fillColor=none;html=1;fontSize=11;fontStyle=1;verticalAlign=middle;align=center;" vertex="1" parent="WIyWlLk6GJQsqaUBKTNV-1">
          <mxGeometry x="370" y="795" width="40" height="20" as="geometry" />
        </mxCell>
        <mxCell id="-XHTt6q0BibQDivQ267n-63" value="" style="edgeStyle=orthogonalEdgeStyle;rounded=0;orthogonalLoop=1;jettySize=auto;html=1;fontSize=11;startArrow=none;exitX=1;exitY=0.5;exitDx=0;exitDy=0;" edge="1" parent="WIyWlLk6GJQsqaUBKTNV-1" source="-XHTt6q0BibQDivQ267n-60" target="-XHTt6q0BibQDivQ267n-62">
          <mxGeometry relative="1" as="geometry">
            <mxPoint x="800" y="1500.0000000000002" as="sourcePoint" />
          </mxGeometry>
        </mxCell>
        <mxCell id="-XHTt6q0BibQDivQ267n-68" style="edgeStyle=orthogonalEdgeStyle;rounded=0;orthogonalLoop=1;jettySize=auto;html=1;fontSize=11;entryX=0;entryY=0.5;entryDx=0;entryDy=0;" edge="1" parent="WIyWlLk6GJQsqaUBKTNV-1" source="-XHTt6q0BibQDivQ267n-60" target="-XHTt6q0BibQDivQ267n-64">
          <mxGeometry relative="1" as="geometry">
            <mxPoint x="760" y="1710" as="targetPoint" />
            <Array as="points">
              <mxPoint x="690" y="1650" />
            </Array>
          </mxGeometry>
        </mxCell>
        <mxCell id="-XHTt6q0BibQDivQ267n-60" value="Dinner time. Are you hungry." style="rhombus;whiteSpace=wrap;html=1;rounded=1;" vertex="1" parent="WIyWlLk6GJQsqaUBKTNV-1">
          <mxGeometry x="620" y="1450" width="140" height="120" as="geometry" />
        </mxCell>
        <mxCell id="-XHTt6q0BibQDivQ267n-65" value="" style="edgeStyle=orthogonalEdgeStyle;rounded=0;orthogonalLoop=1;jettySize=auto;html=1;fontSize=11;" edge="1" parent="WIyWlLk6GJQsqaUBKTNV-1" source="-XHTt6q0BibQDivQ267n-62" target="-XHTt6q0BibQDivQ267n-64">
          <mxGeometry relative="1" as="geometry" />
        </mxCell>
        <mxCell id="-XHTt6q0BibQDivQ267n-62" value="Eat dinner" style="whiteSpace=wrap;html=1;rounded=1;" vertex="1" parent="WIyWlLk6GJQsqaUBKTNV-1">
          <mxGeometry x="850" y="1480" width="120" height="60" as="geometry" />
        </mxCell>
        <mxCell id="-XHTt6q0BibQDivQ267n-67" value="" style="edgeStyle=orthogonalEdgeStyle;rounded=0;orthogonalLoop=1;jettySize=auto;html=1;fontSize=11;" edge="1" parent="WIyWlLk6GJQsqaUBKTNV-1" source="-XHTt6q0BibQDivQ267n-64" target="-XHTt6q0BibQDivQ267n-66">
          <mxGeometry relative="1" as="geometry" />
        </mxCell>
        <mxCell id="-XHTt6q0BibQDivQ267n-64" value="Brush your teeth" style="whiteSpace=wrap;html=1;rounded=1;" vertex="1" parent="WIyWlLk6GJQsqaUBKTNV-1">
          <mxGeometry x="850" y="1620" width="120" height="60" as="geometry" />
        </mxCell>
        <mxCell id="-XHTt6q0BibQDivQ267n-66" value="Sleep" style="whiteSpace=wrap;html=1;rounded=1;" vertex="1" parent="WIyWlLk6GJQsqaUBKTNV-1">
          <mxGeometry x="850" y="1760" width="120" height="60" as="geometry" />
        </mxCell>
        <mxCell id="-XHTt6q0BibQDivQ267n-69" value="True" style="text;strokeColor=none;fillColor=none;html=1;fontSize=11;fontStyle=1;verticalAlign=middle;align=center;" vertex="1" parent="WIyWlLk6GJQsqaUBKTNV-1">
          <mxGeometry x="550" y="1210" width="40" height="20" as="geometry" />
        </mxCell>
        <mxCell id="-XHTt6q0BibQDivQ267n-72" value="True" style="text;strokeColor=none;fillColor=none;html=1;fontSize=11;fontStyle=1;verticalAlign=middle;align=center;" vertex="1" parent="WIyWlLk6GJQsqaUBKTNV-1">
          <mxGeometry x="760" y="1490" width="40" height="20" as="geometry" />
        </mxCell>
        <mxCell id="-XHTt6q0BibQDivQ267n-73" value="Brush your teeth" style="rounded=1;whiteSpace=wrap;html=1;fontSize=11;" vertex="1" parent="WIyWlLk6GJQsqaUBKTNV-1">
          <mxGeometry x="250" y="400" width="120" height="40" as="geometry" />
        </mxCell>
        <mxCell id="-XHTt6q0BibQDivQ267n-74" value="" style="edgeStyle=orthogonalEdgeStyle;rounded=0;orthogonalLoop=1;jettySize=auto;html=1;endArrow=none;" edge="1" parent="WIyWlLk6GJQsqaUBKTNV-1" source="-XHTt6q0BibQDivQ267n-22" target="-XHTt6q0BibQDivQ267n-73">
          <mxGeometry relative="1" as="geometry">
            <mxPoint x="310" y="470" as="targetPoint" />
            <mxPoint x="310" y="360" as="sourcePoint" />
          </mxGeometry>
        </mxCell>
        <mxCell id="-XHTt6q0BibQDivQ267n-75" value="False" style="text;strokeColor=none;fillColor=none;html=1;fontSize=11;fontStyle=1;verticalAlign=middle;align=center;" vertex="1" parent="WIyWlLk6GJQsqaUBKTNV-1">
          <mxGeometry x="310" y="890" width="40" height="20" as="geometry" />
        </mxCell>
        <mxCell id="-XHTt6q0BibQDivQ267n-76" value="False" style="text;strokeColor=none;fillColor=none;html=1;fontSize=11;fontStyle=1;verticalAlign=middle;align=center;" vertex="1" parent="WIyWlLk6GJQsqaUBKTNV-1">
          <mxGeometry x="140" y="300" width="40" height="20" as="geometry" />
        </mxCell>
        <mxCell id="-XHTt6q0BibQDivQ267n-77" value="False" style="text;strokeColor=none;fillColor=none;html=1;fontSize=11;fontStyle=1;verticalAlign=middle;align=center;" vertex="1" parent="WIyWlLk6GJQsqaUBKTNV-1">
          <mxGeometry x="510" y="1280" width="40" height="20" as="geometry" />
        </mxCell>
        <mxCell id="-XHTt6q0BibQDivQ267n-78" value="False" style="text;strokeColor=none;fillColor=none;html=1;fontSize=11;fontStyle=1;verticalAlign=middle;align=center;" vertex="1" parent="WIyWlLk6GJQsqaUBKTNV-1">
          <mxGeometry x="690" y="1570" width="40" height="20" as="geometry" />
        </mxCell>
      </root>
    </mxGraphModel>
  </diagram>
</mxfile>
